# 3ds Max Wavefront OBJ Exporter v0.97b - (c)2007 guruware
# File Created: 10.06.2018 19:38:29

mtllib InteriorDoor.mtl

#
# object InteriorDoorProfile
#

v  25.9564 -0.9546 3.2478
v  25.9564 91.8712 3.2478
v  23.1756 89.6771 3.2478
v  23.1756 -0.9546 3.2478
v  26.2157 89.6771 3.2478
v  26.2157 89.6771 -1.2198
v  26.2157 -0.9546 -1.2198
v  23.1756 -0.9546 -1.2198
v  23.1756 89.6771 -1.2198
v  25.9564 91.8712 -1.2198
v  25.9564 -0.9546 -1.2198
v  -23.0933 89.6771 3.2478
v  -25.9564 91.8712 3.2478
v  -25.9564 -0.9546 3.2478
v  -23.0933 -0.9546 3.2478
v  -25.9163 89.6771 3.2478
v  -25.9163 -0.9546 3.2478
v  -25.9163 -0.9546 -1.2198
v  -25.9163 89.6771 -1.2198
v  -23.0933 89.6771 -1.2198
v  -23.0933 -0.9546 -1.2198
v  -25.9564 -0.9546 -1.2198
v  -25.9564 91.8712 -1.2198
v  -23.0933 91.8486 -1.2198
v  23.1756 91.8486 -1.2198
v  23.1756 91.8486 3.2478
v  -23.0933 91.8486 3.2478
v  -23.0933 91.4143 -1.2198
v  -23.0933 91.4143 3.2478
v  -25.9163 91.4143 3.2478
v  -25.9163 91.4143 -1.2198
v  26.2157 91.8486 -1.2198
v  26.2157 91.8486 3.2478
v  -23.0933 91.6315 3.2478
v  23.1756 91.6315 3.2478
v  -23.0933 91.6315 -1.2198
# 36 vertices

vn 0.0000 0.0000 1.0000
vn -1.0000 0.0000 -0.0000
vn 0.0000 0.0000 -1.0000
vn 1.0000 0.0000 -0.0000
vn 0.0000 -1.0000 -0.0000
vn 0.0000 1.0000 -0.0000
vn 0.0000 0.0346 -0.9994
vn -0.0677 0.0000 0.9977
vn 0.0677 0.0000 -0.9977
vn 0.7438 0.0000 0.6684
vn -0.7438 0.0000 -0.6684
vn -0.7186 0.0000 -0.6954
vn 0.7186 0.0000 0.6954
# 13 vertex normals

vt 0.1290 0.0514 0.0000
vt 0.1290 0.9667 0.0000
vt 0.1652 0.9317 0.0000
vt 0.1652 0.0514 0.0000
vt 0.7577 0.9563 0.0000
vt 0.7922 0.9563 0.0000
vt 0.7922 0.1168 0.0000
vt 0.7577 0.1168 0.0000
vt 0.8398 0.9317 0.0000
vt 0.8986 0.9667 0.0000
vt 0.8986 0.0514 0.0000
vt 0.8398 0.0514 0.0000
vt 0.8397 0.9317 0.0000
vt 0.8994 0.9667 0.0000
vt 0.8994 0.0514 0.0000
vt 0.8397 0.0514 0.0000
vt 0.7909 0.9459 0.0000
vt 0.7909 0.1273 0.0000
vt 0.7555 0.1273 0.0000
vt 0.7555 0.9459 0.0000
vt 0.1654 0.9317 0.0000
vt 0.1654 0.0514 0.0000
vt 0.1282 0.0514 0.0000
vt 0.1282 0.9667 0.0000
vt 0.7608 0.1677 0.0000
vt 0.7608 0.7927 0.0000
vt 0.8032 0.7927 0.0000
vt 0.8032 0.1677 0.0000
# 28 texture coords

g InteriorDoorProfile
usemtl InteriorDoor
s 8
f 1/1/1 2/2/1 3/3/1 4/4/1 
s 16
f 5/5/2 6/6/2 7/7/2 
f 3/5/2 8/7/2 4/8/2 
s 32
f 9/9/3 10/10/3 11/11/3 8/12/3 
s 8
f 12/13/1 13/14/1 14/15/1 15/16/1 
s 16
f 16/17/4 17/18/4 18/19/4 19/20/4 
s 32
f 20/21/3 21/22/3 22/23/3 23/24/3 
s 2
f 12/13/1 3/3/1 2/2/1 13/14/1 
s 1
f 24/25/5 25/26/5 26/27/5 
f 24/25/5 26/27/5 27/28/5 
s 2
f 23/24/3 10/10/3 9/9/3 20/21/3 
s off
f 12/17/3 15/18/3 17/18/3 16/17/3 
f 15/18/6 21/19/6 18/19/6 17/18/6 
f 21/19/1 20/20/1 19/20/1 18/19/1 
f 28/20/5 29/17/5 30/17/5 
f 30/17/5 31/20/5 28/20/5 
f 26/5/5 25/6/5 32/6/5 
f 32/6/5 33/5/5 26/5/5 
f 9/6/1 8/7/1 7/7/1 6/6/1 
f 8/7/7 3/5/7 5/5/7 7/7/7 
f 3/27/3 12/28/3 34/28/3 35/27/3 
f 20/25/8 3/27/8 35/27/8 36/25/8 
f 12/28/4 20/25/4 36/25/4 34/28/4 
f 20/25/1 9/26/1 25/26/1 24/25/1 
f 9/26/2 3/27/2 26/27/2 25/26/2 
f 3/27/9 20/25/9 24/25/9 26/27/9 
f 12/17/3 16/17/3 30/17/3 29/17/3 
f 20/20/2 12/17/2 29/17/2 28/20/2 
f 16/17/10 20/20/10 28/20/10 30/17/10 
f 16/17/4 19/20/4 31/20/4 30/17/4 
f 19/20/1 20/20/1 28/20/1 31/20/1 
f 20/20/11 16/17/11 30/17/11 28/20/11 
f 3/5/4 9/6/4 25/6/4 26/5/4 
f 9/6/1 6/6/1 32/6/1 25/6/1 
f 6/6/12 3/5/12 26/5/12 32/6/12 
f 6/6/2 5/5/2 33/5/2 32/6/2 
f 5/5/3 3/5/3 26/5/3 33/5/3 
f 3/5/13 6/6/13 32/6/13 26/5/13 
f 36/25/4 35/27/4 35/27/4 36/25/4 
f 35/27/4 34/28/4 34/28/4 35/27/4 
f 34/28/4 36/25/4 36/25/4 34/28/4 
f 36/25/8 35/27/8 26/27/8 24/25/8 
f 35/27/3 34/28/3 27/28/3 26/27/3 
f 34/28/4 36/25/4 24/25/4 27/28/4 
# 36 polygons - 8 triangles

#
# object InteriorDoor
#

v  -22.4354 0.0546 -0.9451
v  21.7182 0.0546 9.2272
v  21.2750 0.0546 11.1509
v  -22.8786 0.0546 0.9786
v  21.7182 89.1230 9.2272
v  -22.4354 89.1230 -0.9451
v  -22.8786 89.1230 0.9786
v  21.2750 89.1230 11.1509
# 8 vertices

vn 0.0000 -1.0000 -0.0000
vn 0.0000 1.0000 -0.0000
vn 0.0000 0.0000 1.0000
vn 1.0000 0.0000 -0.0000
vn 0.0000 0.0000 -1.0000
vn -1.0000 0.0000 -0.0000
# 6 vertex normals

vt 0.7629 0.7990 0.0000
vt 0.7629 0.1700 0.0000
vt 0.7903 0.1700 0.0000
vt 0.7903 0.7990 0.0000
vt 0.7994 0.0942 0.0000
vt 0.7994 0.9139 0.0000
vt 0.7637 0.9139 0.0000
vt 0.7637 0.0942 0.0000
vt 0.8064 0.0375 -0.1244
vt 0.8064 0.9625 -0.1244
vt 0.1936 0.9625 -0.1244
vt 0.1936 0.0375 -0.1244
vt 0.7744 0.8622 0.0000
vt 0.7744 0.1427 0.0000
vt 0.7906 0.1427 0.0000
vt 0.7906 0.8622 0.0000
vt 0.8064 0.9625 1.1244
vt 0.1936 0.9625 1.1244
vt 0.1936 0.0375 1.1244
vt 0.8064 0.0375 1.1244
vt 0.7690 0.1163 0.0000
vt 0.7862 0.1163 0.0000
vt 0.7862 0.8739 0.0000
vt 0.7690 0.8739 0.0000
# 24 texture coords

g InteriorDoor
usemtl InteriorDoor
s 2
f 37/29/14 38/30/14 39/31/14 40/32/14 
s 4
f 41/33/15 42/34/15 43/35/15 44/36/15 
s 8
f 39/37/16 44/38/16 43/39/16 40/40/16 
s 16
f 44/41/17 39/42/17 38/43/17 41/44/17 
s 32
f 42/45/18 41/46/18 38/47/18 37/48/18 
s 64
f 37/49/19 40/50/19 43/51/19 42/52/19 
# 6 polygons

